<?xml version="1.0" encoding="utf-8"?>
<!-- Generator: Adobe Illustrator 19.0.0, SVG Export Plug-In . SVG Version: 6.00 Build 0)  -->
<svg version="1.1" id="Layer_1" xmlns="http://www.w3.org/2000/svg" xmlns:xlink="http://www.w3.org/1999/xlink" x="0px" y="0px"
	 viewBox="1204 -14.3 2834.6 453.5" style="enable-background:new 1204 -14.3 2834.6 453.5;" xml:space="preserve">
<style type="text/css">
	.st0{fill:#EF6B17;}
</style>
<g>
	<g>
		<path d="M1908,311.5c0,19-6.9,34-20.7,44.8c-13.8,10.8-32.8,16.3-57,16.3c-24.2,0-44-3.8-59.5-11.3v-33.1
			c9.8,4.6,20.1,8.2,31.1,10.8s21.2,4,30.7,4c13.9,0,24.1-2.6,30.7-7.9c6.6-5.3,9.9-12.4,9.9-21.2c0-8-3-14.8-9.1-20.4
			c-6.1-5.6-18.6-12.2-37.5-19.8c-19.5-7.9-33.3-16.9-41.3-27.1c-8-10.2-12-22.4-12-36.6c0-17.9,6.3-31.9,19-42.2
			s29.7-15.4,51.1-15.4c20.5,0,40.9,4.5,61.2,13.5l-11.1,28.6c-19-8-36-12-51-12c-11.3,0-19.9,2.5-25.8,7.4s-8.8,11.5-8.8,19.6
			c0,5.6,1.2,10.3,3.5,14.3c2.3,4,6.2,7.7,11.6,11.2c5.4,3.5,15,8.2,29,13.9c15.7,6.5,27.2,12.6,34.6,18.3
			c7.3,5.7,12.7,12.1,16.1,19.2C1906.3,293.4,1908,301.8,1908,311.5z"/>
		<path d="M2040.6,182.4c-20.1,0-35.9,7.1-47.5,21.4c-11.5,14.3-17.3,33.9-17.3,59c0,26.3,5.5,46.1,16.6,59.6
			c11.1,13.5,27.1,20.2,48.1,20.2c9.1,0,17.9-0.9,26.4-2.7c8.5-1.8,17.3-4.1,26.5-7v30c-16.8,6.3-35.8,9.5-57.1,9.5
			c-31.3,0-55.4-9.5-72.2-28.5s-25.2-46.2-25.2-81.5c0-22.3,4.1-41.7,12.2-58.4c8.2-16.7,19.9-29.5,35.4-38.4
			c15.4-8.9,33.5-13.3,54.3-13.3c21.9,0,42.1,4.6,60.6,13.8l-12.6,29.2c-7.2-3.4-14.9-6.4-22.9-9
			C2058,183.7,2049.5,182.4,2040.6,182.4z"/>
		<path d="M2174.6,284.1v85.5h-35V155.5h60.5c27.6,0,48.1,5.2,61.4,15.5c13.3,10.4,19.9,26,19.9,46.9c0,26.7-13.9,45.7-41.6,57
			l60.5,94.8h-39.8l-51.3-85.5h-34.6V284.1z M2174.6,255.1h24.4c16.3,0,28.1-3,35.4-9.1c7.3-6.1,11-15,11-27
			c0-12.1-4-20.8-11.9-26.1s-19.8-7.9-35.7-7.9h-23.1L2174.6,255.1L2174.6,255.1z"/>
		<path d="M2452.5,369.6h-121.1V155.5h121.1v29.6h-86.1v58.3h80.7v29.3h-80.7v67.2h86.1V369.6z"/>
		<path d="M2620,369.6h-121.1V155.5H2620v29.6h-86.1v58.3h80.7v29.3h-80.7v67.2h86.1V369.6z"/>
		<path d="M2844.7,369.6h-42.9l-105.3-170.7h-1.2l0.7,9.5c1.4,18.2,2.1,34.8,2.1,49.8v111.3h-31.8v-214h42.5l105,169.8h0.9
			c-0.2-2.2-0.6-10.4-1.2-24.5c-0.6-14.1-0.9-25.1-0.9-33V155.5h32.1L2844.7,369.6L2844.7,369.6z"/>
		<path d="M3024.7,311.5c0,19-6.9,34-20.7,44.8s-32.8,16.3-57,16.3s-44-3.8-59.5-11.3v-33.1c9.8,4.6,20.1,8.2,31.1,10.8
			s21.2,4,30.7,4c13.9,0,24.1-2.6,30.7-7.9c6.6-5.3,9.9-12.4,9.9-21.2c0-8-3-14.8-9.1-20.4c-6.1-5.6-18.6-12.2-37.5-19.8
			c-19.5-7.9-33.3-16.9-41.3-27.1c-8-10.2-12-22.4-12-36.6c0-17.9,6.3-31.9,19-42.2c12.7-10.3,29.7-15.4,51.1-15.4
			c20.5,0,40.9,4.5,61.2,13.5l-11.1,28.6c-19-8-36-12-51-12c-11.3,0-19.9,2.5-25.8,7.4c-5.9,4.9-8.8,11.5-8.8,19.6
			c0,5.6,1.2,10.3,3.5,14.3c2.3,4,6.2,7.7,11.6,11.2s15,8.2,29,13.9c15.7,6.5,27.2,12.6,34.6,18.3c7.3,5.7,12.7,12.1,16.1,19.2
			C3023,293.4,3024.7,301.8,3024.7,311.5z"/>
	</g>
	<g>
		<path d="M1770.9,44.1h15.2c9.8,0,17.1,1.2,21.8,3.6c4.8,2.4,8.7,6.4,11.7,11.8c3.1,5.5,4.6,11.8,4.6,19.1c0,5.2-0.9,10-2.6,14.3
			c-1.7,4.3-4.1,8-7.1,10.8c-3,2.9-6.3,4.8-9.9,5.9c-3.5,1.1-9.7,1.6-18.4,1.6h-15.4V44.1z M1783.6,56.4v42.5h5.9
			c5.9,0,10.1-0.7,12.7-2c2.6-1.3,4.8-3.6,6.5-6.8c1.7-3.2,2.5-7.1,2.5-11.7c0-7.1-2-12.7-6-16.6c-3.6-3.5-9.4-5.3-17.3-5.3H1783.6z
			"/>
		<path d="M1836.5,111.4V44.1h10.6c6.1,0,10.6,0.4,13.5,1.2c4,1.1,7.2,3.1,9.6,5.9c2.4,2.9,3.6,6.3,3.6,10.2c0,2.6-0.5,4.9-1.6,7
			c-1.1,2.1-2.8,4-5.3,5.9c4.1,1.9,7.1,4.3,9,7.2c1.9,2.9,2.8,6.3,2.8,10.2c0,3.8-1,7.2-2.9,10.3c-2,3.1-4.5,5.4-7.6,7
			c-3.1,1.5-7.3,2.3-12.8,2.3H1836.5z M1849.3,56.3v14.2h2.8c3.1,0,5.4-0.7,7-2c1.5-1.3,2.3-3.1,2.3-5.4c0-2.1-0.7-3.8-2.2-5
			c-1.4-1.2-3.6-1.9-6.6-1.9H1849.3z M1849.3,81.9v17.2h3.2c5.3,0,8.9-0.7,10.8-2c1.9-1.3,2.8-3.3,2.8-5.9c0-2.9-1.1-5.2-3.3-6.9
			c-2.2-1.7-5.8-2.5-10.8-2.5H1849.3z"/>
		<path d="M1910.6,50.7v-6.6h36.9v6.6h-15v60.7h-6.9V50.7H1910.6z"/>
		<path d="M1989.2,42.4c10.2,0,18.7,3.4,25.6,10.2c6.9,6.8,10.3,15.2,10.3,25.1c0,9.9-3.4,18.2-10.3,25.1
			c-6.9,6.9-15.2,10.3-25.1,10.3c-10,0-18.4-3.4-25.3-10.2c-6.9-6.8-10.3-15.1-10.3-24.8c0-6.5,1.6-12.5,4.7-18
			c3.1-5.5,7.4-9.8,12.8-13C1977.1,44,1982.9,42.4,1989.2,42.4z M1989.5,48.9c-5,0-9.7,1.3-14.2,3.9c-4.5,2.6-7.9,6.1-10.4,10.5
			c-2.5,4.4-3.8,9.3-3.8,14.7c0,8,2.8,14.8,8.3,20.3c5.5,5.5,12.2,8.3,20,8.3c5.2,0,10.1-1.3,14.5-3.8c4.4-2.5,7.9-6,10.4-10.4
			c2.5-4.4,3.7-9.3,3.7-14.7c0-5.3-1.2-10.2-3.7-14.5c-2.5-4.3-6-7.8-10.5-10.4C1999.4,50.2,1994.6,48.9,1989.5,48.9z"/>
		<path d="M2038.9,44.1h6.7v40.6c0,4.8,0.1,7.8,0.3,9c0.3,2.7,1.1,4.9,2.3,6.7c1.2,1.8,3.1,3.3,5.6,4.5c2.5,1.2,5.1,1.8,7.6,1.8
			c2.2,0,4.4-0.5,6.4-1.4c2-0.9,3.8-2.3,5.1-3.9c1.4-1.7,2.4-3.7,3-6.1c0.5-1.7,0.7-5.2,0.7-10.5V44.1h6.7v40.6
			c0,6-0.6,10.9-1.8,14.6c-1.2,3.7-3.5,6.9-7,9.7c-3.5,2.7-7.8,4.1-12.8,4.1c-5.4,0-10.1-1.3-14-3.9c-3.9-2.6-6.5-6-7.8-10.3
			c-0.8-2.6-1.2-7.3-1.2-14.2V44.1z"/>
		<path d="M2162.7,56.6l-5.3,4.1c-2.9-3.8-6.4-6.7-10.5-8.7c-4.1-2-8.6-3-13.5-3c-5.4,0-10.3,1.3-14.9,3.9c-4.6,2.6-8.1,6-10.6,10.4
			c-2.5,4.3-3.8,9.2-3.8,14.7c0,8.2,2.8,15.1,8.4,20.5c5.6,5.5,12.7,8.2,21.3,8.2c9.4,0,17.3-3.7,23.7-11.1l5.3,4
			c-3.4,4.3-7.5,7.6-12.6,9.9c-5,2.3-10.6,3.5-16.8,3.5c-11.8,0-21.1-3.9-27.9-11.8c-5.7-6.6-8.6-14.6-8.6-24
			c0-9.9,3.5-18.1,10.4-24.9c6.9-6.7,15.6-10.1,26-10.1c6.3,0,12,1.2,17,3.7C2155.3,48.6,2159.4,52.1,2162.7,56.6z"/>
		<path d="M2176.1,44.1h6.7v28.2h34.3V44.1h6.7v67.3h-6.7V78.9h-34.3v32.5h-6.7V44.1z"/>
	</g>
</g>
<path class="st0" d="M1636,49.5h-416c-8.8,0-16,7.2-16,16v224c0,8.8,7.2,16,16,16h176v32h-48c-8.8,0-16,7.2-16,16s7.2,16,16,16h48
	h64h48c8.8,0,16-7.2,16-16s-7.2-16-16-16h-48v-32h176c8.8,0,16-7.2,16-16v-224C1652,56.7,1644.8,49.5,1636,49.5z M1620,273.5h-384
	v-192h384V273.5z"/>
</svg>
