<?xml version="1.0" encoding="utf-8"?>
<!-- Generator: Adobe Illustrator 15.1.0, SVG Export Plug-In . SVG Version: 6.00 Build 0)  -->
<!DOCTYPE svg PUBLIC "-//W3C//DTD SVG 1.1//EN" "http://www.w3.org/Graphics/SVG/1.1/DTD/svg11.dtd">
<svg version="1.1" id="Layer_1" xmlns="http://www.w3.org/2000/svg" xmlns:xlink="http://www.w3.org/1999/xlink" x="0px" y="0px"
	 width="512px" height="512px" viewBox="0 0 512 512" enable-background="new 0 0 512 512" xml:space="preserve">
<g>
	<circle opacity="0.2" cx="256" cy="256.067" r="32"/>
	<path d="M192,256.067c0-17.546,7.066-33.438,18.501-44.999l-22.63-22.63C170.645,205.791,160,229.686,160,256.067
		c0,26.399,10.658,50.307,27.902,67.662l22.6-22.663C199.066,289.505,192,273.613,192,256.067z"/>
	<path d="M352,256.067c0-26.676-10.883-50.807-28.447-68.204l-22.605,22.656C312.706,222.124,320,238.241,320,256.067
		c0,17.829-7.296,33.949-19.059,45.554l22.635,22.628C341.127,306.854,352,282.731,352,256.067z"/>
	<path d="M128,256.067c0-35.219,14.227-67.113,37.243-90.257l-22.628-22.627C113.809,172.118,96,212.012,96,256.067
		c0,44.104,17.847,84.038,46.71,112.98l22.597-22.659C142.252,323.239,128,291.318,128,256.067z"/>
	<path d="M416,256.067c0-44.374-18.068-84.525-47.244-113.509l-22.602,22.652c23.37,23.19,37.846,55.332,37.846,90.856
		c0,35.499-14.454,67.619-37.794,90.806l22.631,22.624C397.966,340.52,416,300.401,416,256.067z"/>
	<path d="M480,256.067c0-62.073-25.253-118.245-66.04-158.813l-22.603,22.652C426.34,154.683,448,202.844,448,256.067
		c0,53.169-21.614,101.286-56.532,136.055l22.63,22.624C454.805,374.188,480,318.071,480,256.067z"/>
	<path d="M64,256.067c0-52.892,21.391-100.786,55.988-135.512L97.361,97.929C56.972,138.444,32,194.339,32,256.067
		c0,61.81,25.035,117.771,65.518,158.299l22.596-22.659C85.441,356.972,64,309.024,64,256.067z"/>
	<path d="M278.346,233.171c-5.768-5.629-13.649-9.104-22.346-9.104c-8.964,0-17.063,3.69-22.871,9.629
		c-5.645,5.77-9.129,13.662-9.129,22.371c0,8.693,3.472,16.572,9.098,22.34c5.813,5.957,13.923,9.66,22.902,9.66
		c8.68,0,16.547-3.461,22.311-9.07c5.974-5.813,9.689-13.936,9.689-22.93C288,247.091,284.299,238.982,278.346,233.171z"/>
</g>
</svg>
