<?xml version="1.0" encoding="utf-8"?>
<!-- Generator: Adobe Illustrator 15.1.0, SVG Export Plug-In . SVG Version: 6.00 Build 0)  -->
<!DOCTYPE svg PUBLIC "-//W3C//DTD SVG 1.1//EN" "http://www.w3.org/Graphics/SVG/1.1/DTD/svg11.dtd">
<svg version="1.1" id="Layer_1" xmlns="http://www.w3.org/2000/svg" xmlns:xlink="http://www.w3.org/1999/xlink" x="0px" y="0px"
	 width="512px" height="512px" viewBox="0 0 512 512" enable-background="new 0 0 512 512" xml:space="preserve">
<g>
	<path d="M480,384H32c-8.836,0-16,7.164-16,16c0,8.837,7.164,16,16,16h448c8.837,0,16-7.163,16-16C496,391.164,488.837,384,480,384z
		"/>
	<path d="M287.911,130.273c0.053-0.752,0.089-1.508,0.089-2.273c0-17.672-14.325-32-32-32c-17.674,0-32,14.328-32,32
		c0,0.765,0.037,1.521,0.09,2.273C115.495,145.764,32,239.124,32,352h32h384h32C480,239.124,396.507,145.764,287.911,130.273z
		 M66.67,320C81.906,229.196,160.865,160,256,160c95.136,0,174.094,69.196,189.33,160H66.67z"/>
</g>
</svg>
