<?xml version="1.0" encoding="utf-8"?>
<!-- Generator: Adobe Illustrator 15.1.0, SVG Export Plug-In . SVG Version: 6.00 Build 0)  -->
<!DOCTYPE svg PUBLIC "-//W3C//DTD SVG 1.1//EN" "http://www.w3.org/Graphics/SVG/1.1/DTD/svg11.dtd">
<svg version="1.1" id="Layer_1" xmlns="http://www.w3.org/2000/svg" xmlns:xlink="http://www.w3.org/1999/xlink" x="0px" y="0px"
	 width="512px" height="512px" viewBox="0 0 512 512" enable-background="new 0 0 512 512" xml:space="preserve">
<g>
	<circle opacity="0.2" cx="256" cy="162" r="64"/>
	<circle opacity="0.2" cx="400" cy="162" r="48"/>
	<circle opacity="0.2" cx="112" cy="161" r="48"/>
	<path d="M151.4,244h39.844c-2.664-10.352-12.061-18-23.244-18H56c-13.254,0-24,10.746-24,24v136h85V278.533
		C117,259.277,132.144,244,151.4,244z"/>
	<path d="M480,250c0-13.255-10.744-24-24-24H344c-11.182,0-20.579,7.649-23.244,18H360.6c19.258,0,34.4,15.277,34.4,34.533V386h85
		V250z"/>
	<circle cx="256" cy="162" r="64"/>
	<path d="M352,254H160c-17.673,0-32,14.327-32,32v128h256V286C384,268.327,369.674,254,352,254z"/>
	<circle cx="400" cy="162" r="48"/>
	<circle cx="112" cy="161" r="48"/>
</g>
</svg>
