<?xml version="1.0" encoding="utf-8"?>
<!-- Generator: Adobe Illustrator 15.1.0, SVG Export Plug-In . SVG Version: 6.00 Build 0)  -->
<!DOCTYPE svg PUBLIC "-//W3C//DTD SVG 1.1//EN" "http://www.w3.org/Graphics/SVG/1.1/DTD/svg11.dtd">
<svg version="1.1" id="Layer_1" xmlns="http://www.w3.org/2000/svg" xmlns:xlink="http://www.w3.org/1999/xlink" x="0px" y="0px"
	 width="512px" height="512px" viewBox="0 0 512 512" enable-background="new 0 0 512 512" xml:space="preserve">
<g>
	<path d="M404,208v-80c0-17.673-14.326-32-32-32h-88v64h56v48h-23.426L372,304l55.426-96H404z"/>
	<path d="M171,352v-48h23.852l-55.426-96L84,304h23v80h0.426c0,17.53,14.098,31.761,31.574,31.989V416h88v-64H171z"/>
	<path d="M244,64H116c-17.673,0-32,14.327-32,32v64c0,17.674,14.327,32,32,32h128c17.674,0,32-14.326,32-32V96
		C276,78.327,261.674,64,244,64z M244,144c0,8.837-7.163,16-16,16h-96c-8.836,0-16-7.163-16-16v-32c0-8.836,7.164-16,16-16h96
		c8.837,0,16,7.164,16,16V144z"/>
	<path d="M395,320H267c-17.673,0-32,14.327-32,32v64c0,17.674,14.327,32,32,32h128c17.674,0,32-14.326,32-32v-64
		C427,334.327,412.674,320,395,320z M395,400c0,8.837-7.163,16-16,16h-96c-8.836,0-16-7.163-16-16v-32c0-8.836,7.164-16,16-16h96
		c8.837,0,16,7.164,16,16V400z"/>
</g>
</svg>
