<?xml version="1.0" encoding="utf-8"?>
<!-- Generator: Adobe Illustrator 15.1.0, SVG Export Plug-In . SVG Version: 6.00 Build 0)  -->
<!DOCTYPE svg PUBLIC "-//W3C//DTD SVG 1.1//EN" "http://www.w3.org/Graphics/SVG/1.1/DTD/svg11.dtd">
<svg version="1.1" id="Layer_1" xmlns="http://www.w3.org/2000/svg" xmlns:xlink="http://www.w3.org/1999/xlink" x="0px" y="0px"
	 width="512px" height="512px" viewBox="0 0 512 512" enable-background="new 0 0 512 512" xml:space="preserve">
<g>
	<path d="M448,134l-40.341,9.455C401.807,137.032,393.375,133,384,133c-8.33,0-15.916,3.186-21.609,8.403L287.63,115.12
		C285.28,99.764,272.015,88,256,88c-17.673,0-32,14.328-32,32c0,0.903,0.047,1.795,0.12,2.68l-78.188,45.813
		C140.816,165.026,134.645,163,128,163c-11.842,0-22.174,6.438-27.708,16H64v32h36.291c5.534,9.563,15.867,16,27.709,16
		c17.674,0,32-14.326,32-32c0-0.903-0.047-1.795-0.12-2.68l78.188-45.813C243.184,149.974,249.355,152,256,152
		c8.331,0,15.917-3.186,21.61-8.402l74.76,26.283C354.72,185.237,367.987,197,384,197c14.624,0,26.947-9.813,30.768-23.211L448,166
		V134z M143.928,196.442c-0.012,0.123-0.023,0.246-0.037,0.368c-0.051,0.451-0.116,0.897-0.203,1.335
		c-0.023,0.115-0.055,0.226-0.08,0.339c-0.072,0.327-0.156,0.648-0.248,0.967c-0.051,0.173-0.1,0.347-0.156,0.518
		c-0.119,0.363-0.249,0.721-0.393,1.073c-0.083,0.202-0.176,0.399-0.266,0.597c-0.089,0.193-0.18,0.383-0.275,0.572
		c-0.105,0.206-0.209,0.414-0.322,0.615C139.206,207.701,133.992,211,128,211c-8.836,0-16-7.163-16-16c0-8.836,7.164-16,16-16
		c8.837,0,16,7.164,16,16C144,195.487,143.97,195.967,143.928,196.442z M256,136c-8.836,0-16-7.163-16-16
		c0-0.487,0.03-0.967,0.072-1.443c0.012-0.123,0.023-0.245,0.037-0.367c0.051-0.451,0.116-0.897,0.203-1.336
		c0.023-0.113,0.054-0.224,0.079-0.337c0.073-0.328,0.157-0.651,0.249-0.971c0.051-0.172,0.1-0.345,0.156-0.515
		c0.119-0.364,0.25-0.722,0.393-1.074c0.084-0.202,0.176-0.399,0.268-0.598c0.087-0.191,0.178-0.379,0.271-0.566
		c0.106-0.208,0.211-0.418,0.326-0.622C244.796,107.298,250.01,104,256,104c3.78,0,7.248,1.319,9.986,3.511
		c0.914,0.732,1.746,1.562,2.48,2.473c0.008,0.01,0.015,0.02,0.022,0.03c0.337,0.42,0.649,0.86,0.943,1.313
		c0.068,0.105,0.129,0.213,0.194,0.32c0.225,0.365,0.437,0.738,0.632,1.122c0.078,0.152,0.15,0.307,0.223,0.462
		c0.165,0.351,0.316,0.709,0.456,1.073c0.068,0.181,0.137,0.361,0.199,0.545c0.121,0.356,0.226,0.719,0.322,1.086
		c0.051,0.194,0.105,0.387,0.149,0.583c0.087,0.388,0.15,0.785,0.208,1.183c0.025,0.179,0.062,0.354,0.081,0.534
		c0.064,0.58,0.103,1.167,0.103,1.765C272,128.837,264.837,136,256,136z M374.014,177.489c-0.914-0.732-1.746-1.562-2.48-2.473
		c-0.008-0.01-0.015-0.02-0.022-0.03c-0.337-0.42-0.649-0.86-0.943-1.313c-0.068-0.105-0.13-0.214-0.195-0.321
		c-0.225-0.365-0.436-0.738-0.631-1.121c-0.077-0.153-0.15-0.308-0.223-0.463c-0.165-0.351-0.316-0.708-0.455-1.072
		c-0.069-0.181-0.138-0.362-0.2-0.546c-0.121-0.356-0.226-0.72-0.322-1.087c-0.051-0.193-0.105-0.385-0.149-0.582
		c-0.087-0.388-0.15-0.785-0.208-1.184c-0.025-0.179-0.062-0.354-0.081-0.535c-0.064-0.58-0.103-1.167-0.103-1.764
		c0-8.836,7.164-16,16-16c8.837,0,16,7.164,16,16c0,0.492-0.03,0.978-0.073,1.458c-0.013,0.139-0.029,0.277-0.046,0.415
		c-0.043,0.371-0.1,0.737-0.168,1.1c-0.021,0.118-0.039,0.236-0.063,0.353c-0.095,0.445-0.208,0.882-0.338,1.313
		c-0.043,0.142-0.094,0.28-0.141,0.42c-0.099,0.296-0.205,0.588-0.32,0.875c-0.069,0.172-0.139,0.344-0.213,0.513
		c-0.123,0.278-0.257,0.549-0.395,0.818c-0.141,0.274-0.289,0.543-0.445,0.808c-0.118,0.201-0.236,0.402-0.362,0.597
		c-0.14,0.215-0.285,0.425-0.435,0.633c-0.095,0.131-0.192,0.259-0.29,0.387c-0.586,0.765-1.236,1.478-1.949,2.125
		c-0.046,0.042-0.092,0.084-0.138,0.125c-1.072,0.952-2.271,1.764-3.57,2.404c-2.13,1.049-4.519,1.655-7.054,1.655
		C380.22,181,376.752,179.682,374.014,177.489z"/>
	<g>
		<path d="M138.332,392H80v32h83.148C151.323,416.877,142.354,405.506,138.332,392z"/>
		<path d="M304,392h-58.332c-4.021,13.506-12.99,24.877-24.816,32H304V392z"/>
		<rect x="336" y="392" width="96" height="32"/>
	</g>
	<g>
		<path d="M141.396,352H80v32h56.578c-0.374-2.614-0.578-5.282-0.578-8C136,367.41,137.939,359.275,141.396,352z"/>
		<path d="M304,352h-61.396c3.457,7.275,5.396,15.41,5.396,24c0,2.718-0.204,5.386-0.578,8H304V352z"/>
		<rect x="336" y="352" width="96" height="32"/>
	</g>
	<g>
		<path d="M176,322.332V312H80v32h66.055C153.217,333.736,163.723,325.987,176,322.332z"/>
		<path d="M304,312h-96v10.332c12.277,3.655,22.784,11.404,29.945,21.668H304V312z"/>
		<rect x="336" y="312" width="96" height="32"/>
	</g>
	<g>
		<rect x="80" y="272" width="96" height="32"/>
		<rect x="208" y="272" width="96" height="32"/>
		<rect x="336" y="272" width="96" height="32"/>
	</g>
	<g>
		<rect x="208" y="232" width="96" height="32"/>
		<rect x="336" y="232" width="96" height="32"/>
	</g>
	<g>
		<rect x="208" y="192" width="96" height="32"/>
	</g>
	<g>
		<path d="M192,328c-26.51,0-48,21.49-48,48s21.49,48,48,48s48-21.49,48-48S218.51,328,192,328z M209.701,399.581
			c-3.504,2.941-8.701,4.7-14.701,5.278V414h-6v-8.958c-8-0.152-14-1.463-20-3.931v-12.064c3,1.31,6.063,2.468,9.793,3.474
			c3.732,1.005,7.207,1.6,10.207,1.781v-14.166l-3.188-1.188c-6.033-2.376-10.433-4.959-12.946-7.746
			c-2.514-2.788-3.734-6.238-3.734-10.351c0-4.417,1.801-8.051,5.26-10.9c3.457-2.849,8.609-4.576,14.609-5.187V338h6v6.581
			c7,0.304,13.275,1.707,18.912,4.204l-4.303,10.693c-4.753-1.948-9.609-3.137-14.609-3.564v13.482
			c6,2.284,10.153,4.266,12.667,5.94c2.514,1.676,4.343,3.519,5.516,5.529c1.172,2.011,1.767,4.358,1.767,7.038
			C214.949,392.748,213.204,396.641,209.701,399.581z"/>
		<path d="M183.033,360.851c0,1.342,0.391,2.444,1.32,3.313c0.93,0.867,2.646,1.759,4.646,2.673v-10.74
			C185,356.676,183.033,358.262,183.033,360.851z"/>
		<path d="M195,382.604v11.379c4-0.7,6.207-2.497,6.207-5.393c0-1.279-0.525-2.36-1.561-3.244
			C198.61,384.462,197,383.548,195,382.604z"/>
	</g>
</g>
</svg>
