<?xml version="1.0" encoding="utf-8"?>
<!-- Generator: Adobe Illustrator 15.1.0, SVG Export Plug-In . SVG Version: 6.00 Build 0)  -->
<!DOCTYPE svg PUBLIC "-//W3C//DTD SVG 1.1//EN" "http://www.w3.org/Graphics/SVG/1.1/DTD/svg11.dtd">
<svg version="1.1" id="Layer_1" xmlns="http://www.w3.org/2000/svg" xmlns:xlink="http://www.w3.org/1999/xlink" x="0px" y="0px"
	 width="512px" height="512px" viewBox="0 0 512 512" enable-background="new 0 0 512 512" xml:space="preserve">
<g>
	<path d="M287.193,253.297c7.639-4.514,15.807-8.006,24.807-10.272v-8.179C306,228.198,297.47,224,287.909,224h-192
		C78.236,224,64,238.327,64,256v128h188.773c-4.3-7.431-7.647-15.482-9.84-24H216v-48h26.934
		c2.267-8.809,5.759-17.123,10.272-24.762l-19.12-19.121l33.963-33.94L287.193,253.297z"/>
	<circle cx="191.909" cy="128" r="64"/>
	<path d="M360,216v27.024c9,2.267,17.078,5.759,24.717,10.272l19.143-19.121l9.141,9.118V222c0-13.255-10.835-24-24.091-24h-112
		c-11.182,0-20.579,7.649-23.244,18h39.844c6.813,0,13.491,1.919,18.491,5.243V216H360z"/>
	<circle cx="332.909" cy="134" r="48"/>
	<path d="M448,352v-32h-24.528c-2.3-12.67-7.285-24.403-14.34-34.595l17.287-17.288l-22.627-22.627l-17.243,17.287
		c-10.191-7.055-21.549-12.04-34.549-14.34V224h-32v24.438c-13,2.3-24.447,7.285-34.641,14.341l-17.311-17.288l-22.638,22.627
		l17.282,17.288c-7.056,10.192-12.047,21.925-14.347,34.595H224v32h24.347c2.3,12.671,7.285,24.403,14.34,34.595l-17.287,17.287
		l22.628,22.628l17.334-17.287c10.191,7.055,21.639,12.04,34.639,14.34V448h32v-24.438c13-2.3,24.357-7.284,34.549-14.34
		l17.265,17.287l22.617-22.628l-17.293-17.287c7.056-10.191,12.034-21.924,14.334-34.595H448z M336.909,392
		c-30.928,0-56-25.071-56-56c0-30.928,25.072-56,56-56c30.929,0,56,25.072,56,56C392.909,366.929,367.838,392,336.909,392z"/>
</g>
</svg>
