<?xml version="1.0" encoding="utf-8"?>
<!-- Generator: Adobe Illustrator 15.1.0, SVG Export Plug-In . SVG Version: 6.00 Build 0)  -->
<!DOCTYPE svg PUBLIC "-//W3C//DTD SVG 1.1//EN" "http://www.w3.org/Graphics/SVG/1.1/DTD/svg11.dtd">
<svg version="1.1" id="Layer_1" xmlns="http://www.w3.org/2000/svg" xmlns:xlink="http://www.w3.org/1999/xlink" x="0px" y="0px"
	 width="512px" height="512px" viewBox="0 0 512 512" enable-background="new 0 0 512 512" xml:space="preserve">
<path d="M464,96H48c-8.836,0-16,7.164-16,16v224c0,8.837,7.164,16,16,16h176v32h-48c-8.836,0-16,7.164-16,16c0,8.837,7.164,16,16,16
	h48h64h48c8.837,0,16-7.163,16-16c0-8.836-7.163-16-16-16h-48v-32h176c8.837,0,16-7.163,16-16V112C480,103.164,472.837,96,464,96z
	 M448,320H64V128h384V320z"/>
</svg>
