<?xml version="1.0" encoding="utf-8"?>
<!-- Generator: Adobe Illustrator 15.1.0, SVG Export Plug-In . SVG Version: 6.00 Build 0)  -->
<!DOCTYPE svg PUBLIC "-//W3C//DTD SVG 1.1//EN" "http://www.w3.org/Graphics/SVG/1.1/DTD/svg11.dtd">
<svg version="1.1" id="Layer_1" xmlns="http://www.w3.org/2000/svg" xmlns:xlink="http://www.w3.org/1999/xlink" x="0px" y="0px"
	 width="512px" height="512px" viewBox="0 0 512 512" enable-background="new 0 0 512 512" xml:space="preserve">
<g>
	<rect x="241.218" y="147.51" transform="matrix(0.7071 -0.7071 0.7071 0.7071 -28.164 291.0254)" width="192.001" height="64"/>
	<g>
		<path d="M309,432H85V80h224v64l32-32V64c0-8.836-7.436-16-16.271-16h-256C59.892,48,53,55.164,53,64v384
			c0,8.837,6.892,16,15.728,16h256c8.836,0,16.271-7.163,16.271-16V239.995l-32,32V432z"/>
	</g>
	<g>
		
			<rect x="393.559" y="75.491" transform="matrix(0.7071 0.7071 -0.7071 0.7071 189.1134 -274.2151)" width="63.999" height="31.355"/>
		<rect x="405.101" y="79.627" opacity="0.2" width="0" height="64.001"/>
	</g>
	<path d="M240.042,116.687c-2.896-2.896-6.896-4.687-11.314-4.687s-8.418,1.791-11.313,4.687l-52.687,52.687l-20.686-20.687
		c-2.896-2.896-6.896-4.687-11.314-4.687s-8.418,1.791-11.313,4.687s-4.687,6.896-4.687,11.313c0,4.418,1.791,8.418,4.687,11.314
		l32,32c2.896,2.895,6.896,4.686,11.313,4.686s8.418-1.791,11.314-4.686l64-64c2.895-2.896,4.686-6.896,4.686-11.314
		C244.728,123.582,242.937,119.582,240.042,116.687z"/>
	<g>
		<rect x="269.336" y="215.392" opacity="0.2" width="0" height="64"/>
		<polygon points="241.093,237.896 212.894,303.834 278.832,275.635 		"/>
	</g>
	<path d="M238.359,211.245c-2.682-2.028-6.01-3.245-9.631-3.245c-4.418,0-8.418,1.791-11.313,4.687l-52.687,52.687l-20.686-20.687
		c-2.896-2.896-6.896-4.687-11.314-4.687s-8.418,1.791-11.313,4.687s-4.687,6.896-4.687,11.313s1.791,8.418,4.687,11.314l32,32
		c2.896,2.895,6.896,4.686,11.313,4.686s8.418-1.791,11.314-4.686l42.973-42.975L238.359,211.245z"/>
	<path d="M238.683,307.487l-34.893,14.823l-39.063,39.063l-20.686-20.687c-2.896-2.896-6.896-4.687-11.314-4.687
		s-8.418,1.791-11.313,4.687s-4.687,6.896-4.687,11.313s1.791,8.418,4.687,11.314l32,32c2.896,2.895,6.896,4.686,11.313,4.686
		s8.418-1.791,11.314-4.686l64-64c2.895-2.896,4.686-6.896,4.686-11.314s-1.791-8.418-4.686-11.313
		C239.615,308.259,239.157,307.864,238.683,307.487z"/>
</g>
</svg>
